<svg width="78" height="20" viewBox="0 0 78 20" fill="none" xmlns="http://www.w3.org/2000/svg">
<mask id="path-1-outside-1_2042_187" maskUnits="userSpaceOnUse" x="-0.25" y="-0.0924072" width="78" height="20" fill="black">
<rect fill="white" x="-0.25" y="-0.0924072" width="78" height="20"/>
<path d="M2.83827 17.9076L11.4886 1.93099H17.866L26.6487 17.9076H21.1981L19.6755 15.083H9.74528L8.31092 17.9076H2.83827ZM14.6663 5.63827L11.5769 11.6405H17.8439L14.6663 5.63827ZM27.2868 17.9076V1.93099H34.8116L40.3505 12.2143L45.8893 1.93099H53.4142V17.9076H48.6477V6.43268H48.6036L42.1821 17.9076H38.5189L32.0974 6.43268H32.0533V17.9076H27.2868ZM55.2675 12.3025V7.53604C55.2675 2.85781 57.8935 1.75445 62.3069 1.75445H69.6774C75.2383 1.75445 76.0106 3.76256 76.0106 6.87403V7.38157H71.2C71.2 5.79274 70.2952 5.59413 68.7285 5.59413H63.4103C60.9388 5.59413 60.2988 6.18995 60.2988 8.92627V10.9123C60.2988 13.6486 60.9388 14.2444 63.4103 14.2444H68.6402C69.9201 14.2444 71.2 14.0458 71.2 12.5011V12.0377H65.1095V8.72767H76.0989V13.2735C76.0989 17.8635 73.7156 18.0841 68.1989 18.0841H62.3069C57.8935 18.0841 55.2675 16.9808 55.2675 12.3025Z"/>
</mask>
<path d="M2.83827 17.9076L11.4886 1.93099H17.866L26.6487 17.9076H21.1981L19.6755 15.083H9.74528L8.31092 17.9076H2.83827ZM14.6663 5.63827L11.5769 11.6405H17.8439L14.6663 5.63827ZM27.2868 17.9076V1.93099H34.8116L40.3505 12.2143L45.8893 1.93099H53.4142V17.9076H48.6477V6.43268H48.6036L42.1821 17.9076H38.5189L32.0974 6.43268H32.0533V17.9076H27.2868ZM55.2675 12.3025V7.53604C55.2675 2.85781 57.8935 1.75445 62.3069 1.75445H69.6774C75.2383 1.75445 76.0106 3.76256 76.0106 6.87403V7.38157H71.2C71.2 5.79274 70.2952 5.59413 68.7285 5.59413H63.4103C60.9388 5.59413 60.2988 6.18995 60.2988 8.92627V10.9123C60.2988 13.6486 60.9388 14.2444 63.4103 14.2444H68.6402C69.9201 14.2444 71.2 14.0458 71.2 12.5011V12.0377H65.1095V8.72767H76.0989V13.2735C76.0989 17.8635 73.7156 18.0841 68.1989 18.0841H62.3069C57.8935 18.0841 55.2675 16.9808 55.2675 12.3025Z" fill="white"/>
<path d="M2.83827 17.9076L1.71959 17.3019L0.702873 19.1797H2.83827V17.9076ZM11.4886 1.93099V0.658865H10.7307L10.3699 1.3253L11.4886 1.93099ZM17.866 1.93099L18.9808 1.31817L18.6183 0.658865H17.866V1.93099ZM26.6487 17.9076V19.1797H28.7997L27.7635 17.2948L26.6487 17.9076ZM21.1981 17.9076L20.0783 18.5112L20.4387 19.1797H21.1981V17.9076ZM19.6755 15.083L20.7953 14.4794L20.4349 13.8109H19.6755V15.083ZM9.74528 15.083V13.8109H8.96453L8.61102 14.507L9.74528 15.083ZM8.31092 17.9076V19.1797H9.09167L9.44517 18.4836L8.31092 17.9076ZM14.6663 5.63827L15.7905 5.04306L14.6504 2.8894L13.5352 5.05609L14.6663 5.63827ZM11.5769 11.6405L10.4458 11.0583L9.49134 12.9127H11.5769V11.6405ZM17.8439 11.6405V12.9127H19.9568L18.9682 11.0453L17.8439 11.6405ZM2.83827 17.9076L3.95695 18.5133L12.6073 2.53668L11.4886 1.93099L10.3699 1.3253L1.71959 17.3019L2.83827 17.9076ZM11.4886 1.93099V3.20312H17.866V1.93099V0.658865H11.4886V1.93099ZM17.866 1.93099L16.7512 2.54381L25.5339 18.5204L26.6487 17.9076L27.7635 17.2948L18.9808 1.31817L17.866 1.93099ZM26.6487 17.9076V16.6355H21.1981V17.9076V19.1797H26.6487V17.9076ZM21.1981 17.9076L22.3179 17.304L20.7953 14.4794L19.6755 15.083L18.5557 15.6866L20.0783 18.5112L21.1981 17.9076ZM19.6755 15.083V13.8109H9.74528V15.083V16.3551H19.6755V15.083ZM9.74528 15.083L8.61102 14.507L7.17666 17.3316L8.31092 17.9076L9.44517 18.4836L10.8795 15.659L9.74528 15.083ZM8.31092 17.9076V16.6355H2.83827V17.9076V19.1797H8.31092V17.9076ZM14.6663 5.63827L13.5352 5.05609L10.4458 11.0583L11.5769 11.6405L12.7079 12.2227L15.7973 6.22045L14.6663 5.63827ZM11.5769 11.6405V12.9127H17.8439V11.6405V10.3684H11.5769V11.6405ZM17.8439 11.6405L18.9682 11.0453L15.7905 5.04306L14.6663 5.63827L13.542 6.23348L16.7196 12.2357L17.8439 11.6405ZM27.2868 17.9076H26.0146V19.1797H27.2868V17.9076ZM27.2868 1.93099V0.658865H26.0146V1.93099H27.2868ZM34.8116 1.93099L35.9316 1.32773L35.5714 0.658865H34.8116V1.93099ZM40.3505 12.2143L39.2305 12.8175L40.3505 14.8969L41.4705 12.8175L40.3505 12.2143ZM45.8893 1.93099V0.658865H45.1296L44.7693 1.32773L45.8893 1.93099ZM53.4142 1.93099H54.6864V0.658865H53.4142V1.93099ZM53.4142 17.9076V19.1797H54.6864V17.9076H53.4142ZM48.6477 17.9076H47.3756V19.1797H48.6477V17.9076ZM48.6477 6.43268H49.9199V5.16056H48.6477V6.43268ZM48.6036 6.43268V5.16056H47.8577L47.4935 5.81145L48.6036 6.43268ZM42.1821 17.9076V19.1797H42.9279L43.2922 18.5288L42.1821 17.9076ZM38.5189 17.9076L37.4088 18.5288L37.773 19.1797H38.5189V17.9076ZM32.0974 6.43268L33.2075 5.81145L32.8433 5.16056H32.0974V6.43268ZM32.0533 6.43268V5.16056H30.7811V6.43268H32.0533ZM32.0533 17.9076V19.1797H33.3254V17.9076H32.0533ZM27.2868 17.9076H28.5589V1.93099H27.2868H26.0146V17.9076H27.2868ZM27.2868 1.93099V3.20312H34.8116V1.93099V0.658865H27.2868V1.93099ZM34.8116 1.93099L33.6917 2.53425L39.2305 12.8175L40.3505 12.2143L41.4705 11.611L35.9316 1.32773L34.8116 1.93099ZM40.3505 12.2143L41.4705 12.8175L47.0093 2.53425L45.8893 1.93099L44.7693 1.32773L39.2305 11.611L40.3505 12.2143ZM45.8893 1.93099V3.20312H53.4142V1.93099V0.658865H45.8893V1.93099ZM53.4142 1.93099H52.1421V17.9076H53.4142H54.6864V1.93099H53.4142ZM53.4142 17.9076V16.6355H48.6477V17.9076V19.1797H53.4142V17.9076ZM48.6477 17.9076H49.9199V6.43268H48.6477H47.3756V17.9076H48.6477ZM48.6477 6.43268V5.16056H48.6036V6.43268V7.70481H48.6477V6.43268ZM48.6036 6.43268L47.4935 5.81145L41.0719 17.2864L42.1821 17.9076L43.2922 18.5288L49.7137 7.05392L48.6036 6.43268ZM42.1821 17.9076V16.6355H38.5189V17.9076V19.1797H42.1821V17.9076ZM38.5189 17.9076L39.629 17.2864L33.2075 5.81145L32.0974 6.43268L30.9873 7.05392L37.4088 18.5288L38.5189 17.9076ZM32.0974 6.43268V5.16056H32.0533V6.43268V7.70481H32.0974V6.43268ZM32.0533 6.43268H30.7811V17.9076H32.0533H33.3254V6.43268H32.0533ZM32.0533 17.9076V16.6355H27.2868V17.9076V19.1797H32.0533V17.9076ZM76.0106 7.38157V8.6537H77.2828V7.38157H76.0106ZM71.2 7.38157H69.9279V8.6537H71.2V7.38157ZM71.2 12.0377H72.4721V10.7656H71.2V12.0377ZM65.1095 12.0377H63.8373V13.3099H65.1095V12.0377ZM65.1095 8.72767V7.45554H63.8373V8.72767H65.1095ZM76.0989 8.72767H77.371V7.45554H76.0989V8.72767ZM55.2675 12.3025H56.5396V7.53604H55.2675H53.9954V12.3025H55.2675ZM55.2675 7.53604H56.5396C56.5396 5.43641 57.1162 4.46415 57.8703 3.92704C58.7325 3.31285 60.1391 3.02658 62.3069 3.02658V1.75445V0.482328C60.0614 0.482328 57.9482 0.747739 56.3941 1.85478C54.7318 3.0389 53.9954 4.95745 53.9954 7.53604H55.2675ZM62.3069 1.75445V3.02658H69.6774V1.75445V0.482328H62.3069V1.75445ZM69.6774 1.75445V3.02658C72.3786 3.02658 73.5144 3.52996 74.0284 4.04557C74.5265 4.54522 74.7385 5.34892 74.7385 6.87403H76.0106H77.2828C77.2828 5.28767 77.1086 3.53159 75.8303 2.24931C74.5679 0.982997 72.5371 0.482328 69.6774 0.482328V1.75445ZM76.0106 6.87403H74.7385V7.38157H76.0106H77.2828V6.87403H76.0106ZM76.0106 7.38157V6.10945H71.2V7.38157V8.6537H76.0106V7.38157ZM71.2 7.38157H72.4721C72.4721 6.33798 72.1544 5.35885 71.1968 4.79555C70.4342 4.34698 69.4706 4.32201 68.7285 4.32201V5.59413V6.86626C69.1032 6.86626 69.3817 6.87886 69.5963 6.90942C69.8127 6.94022 69.8925 6.98015 69.9068 6.98853C69.9095 6.9901 69.8996 6.98441 69.8869 6.97031C69.8741 6.95609 69.8712 6.94759 69.8747 6.95554C69.8854 6.97911 69.9279 7.09447 69.9279 7.38157H71.2ZM68.7285 5.59413V4.32201H63.4103V5.59413V6.86626H68.7285V5.59413ZM63.4103 5.59413V4.32201C62.1931 4.32201 60.8869 4.43494 60.0078 5.35546C59.1512 6.25237 59.0267 7.58285 59.0267 8.92627H60.2988H61.571C61.571 7.53336 61.7664 7.19778 61.8477 7.1127C61.9064 7.05124 62.1559 6.86626 63.4103 6.86626V5.59413ZM60.2988 8.92627H59.0267V10.9123H60.2988H61.571V8.92627H60.2988ZM60.2988 10.9123H59.0267C59.0267 12.2557 59.1512 13.5862 60.0078 14.4831C60.8869 15.4036 62.1931 15.5166 63.4103 15.5166V14.2444V12.9723C62.1559 12.9723 61.9064 12.7873 61.8477 12.7259C61.7664 12.6408 61.571 12.3052 61.571 10.9123H60.2988ZM63.4103 14.2444V15.5166H68.6402V14.2444V12.9723H63.4103V14.2444ZM68.6402 14.2444V15.5166C69.2872 15.5166 70.2004 15.4786 70.9742 15.0873C71.3929 14.8755 71.7907 14.5517 72.0739 14.0745C72.3543 13.6021 72.4721 13.0643 72.4721 12.5011H71.2H69.9279C69.9279 12.6069 69.9169 12.6761 69.9068 12.7172C69.8971 12.757 69.8876 12.7733 69.8861 12.7759C69.8848 12.7781 69.8841 12.7793 69.8802 12.7827C69.8752 12.7871 69.8598 12.7997 69.8259 12.8169C69.7516 12.8545 69.6187 12.8988 69.4006 12.9299C69.1856 12.9605 68.9329 12.9723 68.6402 12.9723V14.2444ZM71.2 12.5011H72.4721V12.0377H71.2H69.9279V12.5011H71.2ZM71.2 12.0377V10.7656H65.1095V12.0377V13.3099H71.2V12.0377ZM65.1095 12.0377H66.3816V8.72767H65.1095H63.8373V12.0377H65.1095ZM65.1095 8.72767V9.99979H76.0989V8.72767V7.45554H65.1095V8.72767ZM76.0989 8.72767H74.8268V13.2735H76.0989H77.371V8.72767H76.0989ZM76.0989 13.2735H74.8268C74.8268 14.3295 74.6866 14.9953 74.4867 15.4254C74.3067 15.8126 74.0543 16.0637 73.6586 16.2574C73.2198 16.4721 72.5836 16.6243 71.6435 16.7112C70.7105 16.7975 69.5823 16.812 68.1989 16.812V18.0841V19.3563C69.5738 19.3563 70.8123 19.3432 71.8778 19.2447C72.9361 19.1468 73.9302 18.9569 74.7768 18.5427C75.6664 18.1074 76.3547 17.4428 76.7939 16.4977C77.2133 15.5955 77.371 14.5125 77.371 13.2735H76.0989ZM68.1989 18.0841V16.812H62.3069V18.0841V19.3563H68.1989V18.0841ZM62.3069 18.0841V16.812C60.1391 16.812 58.7325 16.5257 57.8703 15.9115C57.1162 15.3744 56.5396 14.4022 56.5396 12.3025H55.2675H53.9954C53.9954 14.8811 54.7318 16.7997 56.3941 17.9838C57.9482 19.0908 60.0614 19.3563 62.3069 19.3563V18.0841Z" fill="black" mask="url(#path-1-outside-1_2042_187)"/>
</svg>
